<!DOCTYPE svg PUBLIC "-//W3C//DTD SVG 1.1//EN" "http://www.w3.org/Graphics/SVG/1.1/DTD/svg11.dtd">
<svg viewBox="0 0 250 100" xmlns="http://www.w3.org/2000/svg"
    width="1000" height="400"
    style="top: 50%;background-color: #000;position: absolute;left: 50%;transform: translate(-50%,-50%);" fill="#fff"
    stroke="#fff">
    <svg stroke-width="0">
        <path transform="translate(0,73.2) rotate(-105)"
            d="M0 0,L12.06794919 21.9615242,L12.06794919 47.3205081,L-0 60,L-12.06794919 47.3205081,L-12.06794919 21.9615242 Z" />
        <path transform="translate(73.2,00) rotate(15)"
            d="M0 0,L12.06794919 21.9615242,L12.06794919 47.3205081,L-0 60,L-12.06794919 47.3205081,L-12.06794919 21.9615242 Z" />
        <path transform="translate(100,100) rotate(-225)"
            d="M0 0,L12.06794919 21.9615242,L12.06794919 47.3205081,L-0 60,L-12.06794919 47.3205081,L-12.06794919 21.9615242 Z" />
    </svg>

    <svg style="overflow: visible;" x="100" y="25" width="150" height="50" viewBox="0 0 300 100">
        <path d="M300 0,l-50 0,l-50 50,l0 50,l-50 0,l-100 -100,l-50 0,l0 100,l50 0,l100 -100,l50,0,M100 50,l200 0"
            fill="#0000" stroke-width="5"></path>
    </svg>
</svg>